<svg xmlns="http://www.w3.org/2000/svg" viewBox="0 0 425 102"><defs><style>.cls-3{fill:#fff}</style><clipPath id="clip-path"><path id="Rectangle_278" d="M0 0h425v102H0z" data-name="Rectangle 278" transform="translate(140 161)" fill="none"/></clipPath></defs><g id="Mask_Group_77" data-name="Mask Group 77" transform="translate(-140 -161)" clip-path="url(#clip-path)"><g id="JBF_Logo_Black_v3" transform="translate(69.721 -5.628)"><g id="Group_7" data-name="Group 7" transform="translate(72.027 168.628)"><g id="Group_6" data-name="Group 6" transform="translate(94.38 14.372)"><g id="Group_4" data-name="Group 4"><path id="Path_49" d="M179.637 184.964h4.527v15.531a7.557 7.557 0 0 1-1.811 5.223 6 6 0 0 1-4.666 1.95 6.4 6.4 0 0 1-4.805-1.811 7.364 7.364 0 0 1-1.741-5.084h4.527c0 2.089.627 3.2 1.95 3.2s1.95-1.254 1.95-3.691l.07-15.322z" class="cls-3" data-name="Path 49" transform="translate(-171.141 -183.78)"/><path id="Path_50" d="M196.243 207.728a3.91 3.91 0 0 1-.348-1.323 3.747 3.747 0 0 1-3.2 1.6 4.779 4.779 0 0 1-3.482-1.393 4.88 4.88 0 0 1-1.393-3.621 4.959 4.959 0 0 1 1.671-4.039 7.08 7.08 0 0 1 4.805-1.463h1.323v-1.323a2.454 2.454 0 0 0-.418-1.6 1.3 1.3 0 0 0-1.114-.488c-1.114 0-1.6.627-1.6 1.88h-4.388a4.851 4.851 0 0 1 1.741-3.83 6.721 6.721 0 0 1 4.388-1.532 6.114 6.114 0 0 1 4.248 1.393A5.515 5.515 0 0 1 200 196.1v8.009a7.651 7.651 0 0 0 .627 3.413v.279l-4.388-.07zm-2.577-3.134a2.385 2.385 0 0 0 1.254-.279 2.483 2.483 0 0 0 .766-.7v-3.482h-1.045a2.117 2.117 0 0 0-1.741.7 2.787 2.787 0 0 0-.627 1.88c-.073 1.254.418 1.881 1.393 1.881z" class="cls-3" data-name="Path 50" transform="translate(-171.937 -184.049)"/><path id="Path_51" d="M208.012 191.017l.139 1.532a4.722 4.722 0 0 1 3.9-1.88 3.665 3.665 0 0 1 3.549 2.231 4.5 4.5 0 0 1 4.109-2.229c2.925 0 4.388 2.02 4.457 6.059v10.934h-4.388v-10.658a3.915 3.915 0 0 0-.418-2.089 1.45 1.45 0 0 0-1.323-.627c-.836 0-1.393.488-1.811 1.463v11.909h-4.388v-10.656a3.915 3.915 0 0 0-.418-2.089 1.5 1.5 0 0 0-1.393-.627 2.059 2.059 0 0 0-1.811 1.254v12.118h-4.388v-16.715l4.179.07z" class="cls-3" data-name="Path 51" transform="translate(-172.702 -184.052)"/><path id="Path_52" d="M235.291 208.01a6.869 6.869 0 0 1-5.223-2.02 8.067 8.067 0 0 1-1.88-5.711v-1.323a9.446 9.446 0 0 1 1.741-6.129 5.923 5.923 0 0 1 4.945-2.159 5.716 5.716 0 0 1 4.736 2.02 9.518 9.518 0 0 1 1.6 5.92v2.159h-8.705a4.482 4.482 0 0 0 .836 2.716 2.839 2.839 0 0 0 2.229.836 4.882 4.882 0 0 0 3.621-1.463l1.741 2.646a6.057 6.057 0 0 1-2.3 1.811 7.781 7.781 0 0 1-3.341.697zm-2.786-10.238h4.388v-.418a5.126 5.126 0 0 0-.488-2.3 1.725 1.725 0 0 0-1.6-.766 1.824 1.824 0 0 0-1.671.836 5.88 5.88 0 0 0-.628 2.648z" class="cls-3" data-name="Path 52" transform="translate(-173.865 -184.052)"/><path id="Path_53" d="M251.771 203.277a1.563 1.563 0 0 0-.557-1.045 7.558 7.558 0 0 0-2.368-1.254 8.4 8.4 0 0 1-3.691-2.3 4.181 4.181 0 0 1-1.045-2.925 4.751 4.751 0 0 1 1.6-3.621 5.843 5.843 0 0 1 4.179-1.393 6.755 6.755 0 0 1 4.388 1.393 4.813 4.813 0 0 1 1.671 3.83h-4.388c0-1.323-.557-2.02-1.671-2.02a1.47 1.47 0 0 0-1.114.418 1.638 1.638 0 0 0-.418 1.184 1.216 1.216 0 0 0 .488.975 10.682 10.682 0 0 0 2.3 1.184 8.482 8.482 0 0 1 3.761 2.229 4.775 4.775 0 0 1 1.114 3.134 4.492 4.492 0 0 1-1.671 3.621 6.729 6.729 0 0 1-4.388 1.323 7.071 7.071 0 0 1-3.273-.7 5.65 5.65 0 0 1-2.229-2.02 4.806 4.806 0 0 1-.766-2.786h4.179a2.606 2.606 0 0 0 .557 1.741 2.293 2.293 0 0 0 1.671.557c1.114.007 1.671-.48 1.671-1.525z" class="cls-3" data-name="Path 53" transform="translate(-174.606 -184.056)"/><path id="Path_54" d="M267.316 207.459v-22.495h6.964a8.478 8.478 0 0 1 5.363 1.532 5.6 5.6 0 0 1 1.811 4.6 5.715 5.715 0 0 1-.766 2.925 4.433 4.433 0 0 1-2.089 1.811 3.639 3.639 0 0 1 2.3 1.741 5.77 5.77 0 0 1 .836 3.2 6.521 6.521 0 0 1-1.811 4.945 7.354 7.354 0 0 1-5.223 1.671l-7.382.07zm4.6-13.093h2.368c1.811 0 2.646-.905 2.646-2.786a2.961 2.961 0 0 0-.627-2.159 2.817 2.817 0 0 0-2.02-.7h-2.438v5.641zm0 3.343v5.991h2.925a2.359 2.359 0 0 0 1.88-.766 3.323 3.323 0 0 0 .627-2.159c0-2.02-.7-3.064-2.159-3.134h-3.273z" class="cls-3" data-name="Path 54" transform="translate(-175.734 -183.78)"/><path id="Path_55" d="M293.661 207.728a3.91 3.91 0 0 1-.348-1.323 3.747 3.747 0 0 1-3.2 1.6 4.779 4.779 0 0 1-3.482-1.393 4.88 4.88 0 0 1-1.393-3.621 4.959 4.959 0 0 1 1.671-4.039 7.08 7.08 0 0 1 4.805-1.463h1.323v-1.323a2.454 2.454 0 0 0-.418-1.6 1.515 1.515 0 0 0-1.114-.488c-1.114 0-1.6.627-1.6 1.88h-4.388a4.851 4.851 0 0 1 1.741-3.83 6.72 6.72 0 0 1 4.388-1.532 6.114 6.114 0 0 1 4.248 1.393 5.515 5.515 0 0 1 1.532 4.109v8.009a7.651 7.651 0 0 0 .627 3.413v.279l-4.388-.07zm-2.577-3.134a2.385 2.385 0 0 0 1.254-.279 2.484 2.484 0 0 0 .766-.7v-3.482h-1.044a2.117 2.117 0 0 0-1.741.7 2.787 2.787 0 0 0-.627 1.88c-.07 1.254.418 1.881 1.393 1.881z" class="cls-3" data-name="Path 55" transform="translate(-176.59 -184.049)"/><path id="Path_56" d="M305.364 191.02l.139 1.671a4.6 4.6 0 0 1 3.9-1.95c2.855 0 4.318 2.02 4.457 6.059v11h-4.388v-10.651a4.085 4.085 0 0 0-.418-2.089 1.627 1.627 0 0 0-1.463-.627 2.152 2.152 0 0 0-1.88 1.254V207.8h-4.388v-16.71h4.039z" class="cls-3" data-name="Path 56" transform="translate(-177.359 -184.056)"/><path id="Path_57" d="M323.206 200.922l-1.184 1.323v5.155h-4.388v-23.68h4.388v12.814l.557-.836 2.995-5.014h5.226l-4.875 6.895 5.293 9.82H326.2z" class="cls-3" data-name="Path 57" transform="translate(-178.138 -183.72)"/><path id="Path_58" d="M340.925 203.277a1.563 1.563 0 0 0-.557-1.045 7.559 7.559 0 0 0-2.368-1.253 8.4 8.4 0 0 1-3.691-2.3 4.182 4.182 0 0 1-1.045-2.925 4.751 4.751 0 0 1 1.6-3.621 5.843 5.843 0 0 1 4.179-1.393 6.755 6.755 0 0 1 4.388 1.393 4.813 4.813 0 0 1 1.671 3.83h-4.388c0-1.323-.557-2.02-1.671-2.02a1.47 1.47 0 0 0-1.114.418 1.638 1.638 0 0 0-.418 1.184 1.216 1.216 0 0 0 .488.975 10.682 10.682 0 0 0 2.3 1.184 8.482 8.482 0 0 1 3.761 2.229 4.437 4.437 0 0 1 1.114 3.134 4.492 4.492 0 0 1-1.671 3.621 6.729 6.729 0 0 1-4.388 1.323 7.071 7.071 0 0 1-3.273-.7 5.65 5.65 0 0 1-2.229-2.02 4.806 4.806 0 0 1-.766-2.786h4.179a2.606 2.606 0 0 0 .557 1.741 2.293 2.293 0 0 0 1.671.557c1.114.006 1.671-.481 1.671-1.526z" class="cls-3" data-name="Path 58" transform="translate(-178.864 -184.056)"/><path id="Path_59" d="M368.1 198.266h-7.03v9.193h-4.527v-22.495h12.466v3.761h-7.939v5.78h7.03z" class="cls-3" data-name="Path 59" transform="translate(-179.996 -183.78)"/><path id="Path_60" d="M371.171 198.817a9.307 9.307 0 0 1 1.811-5.989 6.013 6.013 0 0 1 4.945-2.159 6.152 6.152 0 0 1 5.014 2.159 9.174 9.174 0 0 1 1.811 5.989v1.045a9.29 9.29 0 0 1-1.741 5.989 6.822 6.822 0 0 1-9.959 0 9.174 9.174 0 0 1-1.811-5.989v-1.045zm4.388 1.114c0 2.995.766 4.457 2.368 4.457 1.462 0 2.229-1.254 2.368-3.761v-1.811a7.255 7.255 0 0 0-.627-3.413 1.959 1.959 0 0 0-1.811-1.114 1.863 1.863 0 0 0-1.741 1.114 7.255 7.255 0 0 0-.627 3.413l.07 1.114z" class="cls-3" data-name="Path 60" transform="translate(-180.695 -184.052)"/><path id="Path_61" d="M396.426 206.216a4.162 4.162 0 0 1-3.621 1.811 4.088 4.088 0 0 1-3.482-1.6 7.706 7.706 0 0 1-1.184-4.6v-10.793h4.388v10.934c0 1.6.557 2.438 1.6 2.438a2.21 2.21 0 0 0 2.159-1.323v-12.049h4.388v16.715h-4.109z" class="cls-3" data-name="Path 61" transform="translate(-181.505 -184.07)"/><path id="Path_62" d="M408.557 191.02l.139 1.671a4.6 4.6 0 0 1 3.9-1.95c2.855 0 4.318 2.02 4.457 6.059v11h-4.388v-10.651a4.084 4.084 0 0 0-.418-2.089 1.627 1.627 0 0 0-1.462-.627 2.152 2.152 0 0 0-1.88 1.254V207.8h-4.457v-16.71h4.109z" class="cls-3" data-name="Path 62" transform="translate(-182.284 -184.056)"/><path id="Path_63" d="M420.245 198.554a11.071 11.071 0 0 1 1.393-6.129 4.655 4.655 0 0 1 4.039-2.02 3.9 3.9 0 0 1 3.2 1.671v-8.356h4.388v23.68H429.3l-.209-1.671a4.056 4.056 0 0 1-3.482 2.02 4.533 4.533 0 0 1-3.97-2.02 10.454 10.454 0 0 1-1.393-5.92v-1.254zm4.388 1.045a8.116 8.116 0 0 0 .557 3.482 1.907 1.907 0 0 0 1.741.975 2.153 2.153 0 0 0 1.95-1.184v-7.591a2.1 2.1 0 0 0-1.95-1.254 1.835 1.835 0 0 0-1.741.975 7.9 7.9 0 0 0-.557 3.482z" class="cls-3" data-name="Path 63" transform="translate(-183.038 -183.72)"/><path id="Path_64" d="M445.274 207.728a3.909 3.909 0 0 1-.348-1.323 3.747 3.747 0 0 1-3.2 1.6 4.779 4.779 0 0 1-3.482-1.393 4.88 4.88 0 0 1-1.393-3.621 4.959 4.959 0 0 1 1.671-4.039 7.08 7.08 0 0 1 4.805-1.463h1.323v-1.323a2.454 2.454 0 0 0-.418-1.6 1.515 1.515 0 0 0-1.114-.488c-1.114 0-1.6.627-1.6 1.88h-4.388a4.851 4.851 0 0 1 1.741-3.83 6.721 6.721 0 0 1 4.388-1.532 6.114 6.114 0 0 1 4.248 1.393 5.515 5.515 0 0 1 1.532 4.109v8.009a7.651 7.651 0 0 0 .627 3.413v.279l-4.388-.07zm-2.577-3.134a2.385 2.385 0 0 0 1.254-.279 2.483 2.483 0 0 0 .766-.7v-3.482H443.6a2.117 2.117 0 0 0-1.741.7 2.787 2.787 0 0 0-.627 1.88q.003 1.881 1.468 1.881z" class="cls-3" data-name="Path 64" transform="translate(-183.831 -184.049)"/><path id="Path_65" d="M457.962 186.715v4.109h2.229v3.276h-2.229v8.288a2.454 2.454 0 0 0 .279 1.393 1.2 1.2 0 0 0 1.045.348 4.216 4.216 0 0 0 1.045-.139v3.41a6.89 6.89 0 0 1-2.438.418c-2.786 0-4.248-1.6-4.248-4.875v-8.914h-1.95v-3.273h1.95v-4.109l4.318.07z" class="cls-3" data-name="Path 65" transform="translate(-184.541 -183.86)"/><path id="Path_66" d="M463.177 186.384a2.259 2.259 0 0 1 .627-1.671 2.317 2.317 0 0 1 1.741-.627 2.427 2.427 0 0 1 1.741.627 2.542 2.542 0 0 1 0 3.343 2.353 2.353 0 0 1-1.741.7 2.21 2.21 0 0 1-1.741-.7 2.259 2.259 0 0 1-.627-1.672zm4.527 21.032h-4.388V190.7h4.384z" class="cls-3" data-name="Path 66" transform="translate(-185.089 -183.738)"/><path id="Path_67" d="M471 198.817a9.307 9.307 0 0 1 1.811-5.989 6.013 6.013 0 0 1 4.945-2.159 6.152 6.152 0 0 1 5.014 2.159 9.174 9.174 0 0 1 1.811 5.989v1.045a9.29 9.29 0 0 1-1.741 5.989 6.822 6.822 0 0 1-9.959 0 9.174 9.174 0 0 1-1.811-5.989l-.07-1.045zm4.318 1.114c0 2.995.766 4.457 2.368 4.457 1.462 0 2.229-1.254 2.368-3.761v-1.811a7.255 7.255 0 0 0-.627-3.413 1.959 1.959 0 0 0-1.811-1.114 1.864 1.864 0 0 0-1.741 1.114 7.255 7.255 0 0 0-.627 3.413l.07 1.114z" class="cls-3" data-name="Path 67" transform="translate(-185.463 -184.052)"/><path id="Path_68" d="M492.01 191.02l.139 1.671a4.6 4.6 0 0 1 3.9-1.95c2.855 0 4.318 2.02 4.457 6.059v11h-4.388v-10.651a4.085 4.085 0 0 0-.418-2.089 1.627 1.627 0 0 0-1.462-.627 2.152 2.152 0 0 0-1.88 1.254V207.8h-4.388v-16.71h4.039v-.07z" class="cls-3" data-name="Path 68" transform="translate(-186.273 -184.056)"/></g><g id="Group_5" data-name="Group 5" transform="translate(.139 38.861)"><path id="Path_69" d="M171.287 236.544v-11.282h2.995a4.041 4.041 0 0 1 3.134 1.254 4.833 4.833 0 0 1 1.184 3.413v1.811a5.015 5.015 0 0 1-1.184 3.482 4.2 4.2 0 0 1-3.2 1.254h-2.925zm2.3-9.4v7.452h.7a1.906 1.906 0 0 0 1.6-.627 3.827 3.827 0 0 0 .488-2.089v-1.95a4.327 4.327 0 0 0-.418-2.229 1.627 1.627 0 0 0-1.463-.627l-.905.07z" class="cls-3" data-name="Path 69" transform="translate(-171.287 -224.566)"/><path id="Path_70" d="M183.9 236.823a3.633 3.633 0 0 1-2.646-.975 4.046 4.046 0 0 1-.975-2.855v-.7a5 5 0 0 1 .836-3.064 3.448 3.448 0 0 1 4.875-.07 5.107 5.107 0 0 1 .836 2.995v1.046h-4.318a2.079 2.079 0 0 0 .418 1.393 1.371 1.371 0 0 0 1.114.418 2.529 2.529 0 0 0 1.811-.766l.836 1.323a2.686 2.686 0 0 1-1.184.905 4.132 4.132 0 0 1-1.603.35zm-1.323-5.154h2.159v-.209a1.646 1.646 0 0 0-.279-1.114.842.842 0 0 0-.836-.418.993.993 0 0 0-.836.418 2.4 2.4 0 0 0-.204 1.324z" class="cls-3" data-name="Path 70" transform="translate(-171.717 -224.705)"/><path id="Path_71" d="M188.182 232.056a5.252 5.252 0 0 1 .7-3.064 2.278 2.278 0 0 1 2.02-1.045 1.952 1.952 0 0 1 1.6.836V224.6h2.229v11.839h-1.95l-.07-.836a1.922 1.922 0 0 1-1.741.975 2.385 2.385 0 0 1-2.02-.975 5.054 5.054 0 0 1-.7-2.925v-.627zm2.229.557a3.582 3.582 0 0 0 .279 1.741.945.945 0 0 0 .905.488 1.111 1.111 0 0 0 .975-.557v-3.83a1.05 1.05 0 0 0-.975-.627.945.945 0 0 0-.905.488 3.582 3.582 0 0 0-.279 1.741z" class="cls-3" data-name="Path 71" transform="translate(-172.094 -224.534)"/><path id="Path_72" d="M196.739 226.007a1.189 1.189 0 1 1 .348.836 1.153 1.153 0 0 1-.348-.836zm2.3 10.516h-2.159v-8.357h2.159z" class="cls-3" data-name="Path 72" transform="translate(-172.503 -224.545)"/><path id="Path_73" d="M203.888 235.013c.627 0 .975-.418.975-1.254h2.02a3.049 3.049 0 0 1-.836 2.229 2.885 2.885 0 0 1-2.159.836 3.143 3.143 0 0 1-2.438-.975 4.57 4.57 0 0 1-.836-2.925v-.7a4.65 4.65 0 0 1 .836-2.995 2.967 2.967 0 0 1 2.438-1.045 2.781 2.781 0 0 1 2.159.836 3.664 3.664 0 0 1 .836 2.438h-2.02a1.957 1.957 0 0 0-.209-1.045c-.139-.279-.418-.348-.766-.348a.993.993 0 0 0-.836.418 2.824 2.824 0 0 0-.279 1.6v.836a6.457 6.457 0 0 0 .07 1.393 1.346 1.346 0 0 0 .348.627c.209.004.419.074.697.074z" class="cls-3" data-name="Path 73" transform="translate(-172.688 -224.705)"/><path id="Path_74" d="M212.469 236.688a3.238 3.238 0 0 1-.209-.627 1.864 1.864 0 0 1-1.6.836 2.31 2.31 0 0 1-1.741-.7 2.362 2.362 0 0 1-.7-1.811 2.48 2.48 0 0 1 .836-2.02 4.059 4.059 0 0 1 2.438-.766h.7v-.7a1.12 1.12 0 0 0-.209-.766.791.791 0 0 0-.557-.209c-.557 0-.836.348-.836.975h-2.161a2.385 2.385 0 0 1 .836-1.88 3.322 3.322 0 0 1 2.229-.766 3.1 3.1 0 0 1 2.159.7 2.786 2.786 0 0 1 .766 2.02v3.9a5.2 5.2 0 0 0 .279 1.671v.139zm-1.254-1.6a2.034 2.034 0 0 0 .627-.139.839.839 0 0 0 .348-.348v-1.741h-.557a1.324 1.324 0 0 0-.905.348 1.378 1.378 0 0 0-.348.975c.139.624.348.903.836.903z" class="cls-3" data-name="Path 74" transform="translate(-173.051 -224.709)"/><path id="Path_75" d="M218.888 226.14v2.02H220v1.6h-1.114v4.179a1.5 1.5 0 0 0 .139.7.542.542 0 0 0 .488.209c.209 0 .418 0 .488-.07v1.671a3.253 3.253 0 0 1-1.184.209c-1.393 0-2.089-.836-2.159-2.438v-4.457h-.905v-1.6h.975v-2.02z" class="cls-3" data-name="Path 75" transform="translate(-173.411 -224.608)"/><path id="Path_76" d="M224.788 236.823a3.633 3.633 0 0 1-2.646-.975 4.046 4.046 0 0 1-.975-2.855v-.7a5 5 0 0 1 .836-3.064 3.448 3.448 0 0 1 4.875-.07 5.107 5.107 0 0 1 .836 2.995v1.046H223.4a2.08 2.08 0 0 0 .418 1.393 1.371 1.371 0 0 0 1.114.418 2.529 2.529 0 0 0 1.811-.766l.836 1.323a2.686 2.686 0 0 1-1.184.905 4.132 4.132 0 0 1-1.607.35zm-1.323-5.154h2.159v-.209a1.647 1.647 0 0 0-.279-1.114.842.842 0 0 0-.836-.418.993.993 0 0 0-.836.418 2.4 2.4 0 0 0-.208 1.324z" class="cls-3" data-name="Path 76" transform="translate(-173.669 -224.705)"/><path id="Path_77" d="M229.065 232.056a5.253 5.253 0 0 1 .7-3.064 2.278 2.278 0 0 1 2.02-1.045 1.952 1.952 0 0 1 1.6.836V224.6h2.229v11.839h-1.95l-.07-.836a1.922 1.922 0 0 1-1.741.975 2.385 2.385 0 0 1-2.02-.975 5.054 5.054 0 0 1-.7-2.925v-.627zm2.229.557a3.582 3.582 0 0 0 .279 1.741.945.945 0 0 0 .905.488 1.111 1.111 0 0 0 .975-.557v-3.83a1.05 1.05 0 0 0-.975-.627.945.945 0 0 0-.905.488 3.582 3.582 0 0 0-.279 1.741z" class="cls-3" data-name="Path 77" transform="translate(-174.047 -224.534)"/><path id="Path_78" d="M243.971 226.14v2.02h1.114v1.6h-1.114v4.179a1.5 1.5 0 0 0 .139.7.542.542 0 0 0 .488.209c.209 0 .418 0 .488-.07v1.671a3.253 3.253 0 0 1-1.184.209c-1.393 0-2.089-.836-2.159-2.438v-4.457h-.975v-1.6h.975v-2.02z" class="cls-3" data-name="Path 78" transform="translate(-174.605 -224.608)"/><path id="Path_79" d="M246.033 232.227a4.522 4.522 0 0 1 .905-2.995 3.11 3.11 0 0 1 2.507-1.045 3.208 3.208 0 0 1 2.507 1.045 4.4 4.4 0 0 1 .905 2.995v.557a4.522 4.522 0 0 1-.905 2.995 2.912 2.912 0 0 1-2.507 1.045 3.208 3.208 0 0 1-2.507-1.045 4.4 4.4 0 0 1-.905-2.995zm2.159.557c0 1.463.418 2.229 1.184 2.229s1.114-.627 1.184-1.88v-.905a3.324 3.324 0 0 0-.348-1.671 1 1 0 0 0-.905-.557.983.983 0 0 0-.836.557 3.44 3.44 0 0 0-.279 1.671v.557z" class="cls-3" data-name="Path 79" transform="translate(-174.857 -224.705)"/><path id="Path_80" d="M263.794 234.25h-3.064l-.627 2.3h-2.368l3.482-11.213h2.089l3.552 11.213h-2.438zm-2.577-1.95h2.089l-1.045-3.97z" class="cls-3" data-name="Path 80" transform="translate(-175.416 -224.569)"/><path id="Path_81" d="M270.356 228.327l.07.766a2.288 2.288 0 0 1 1.95-.905 1.739 1.739 0 0 1 1.741 1.114 2.27 2.27 0 0 1 2.02-1.114c1.462 0 2.229 1.045 2.229 3.064v5.5h-2.159v-5.363a1.957 1.957 0 0 0-.209-1.045.733.733 0 0 0-.7-.279c-.418 0-.7.279-.905.766v5.92h-2.159v-5.293a1.957 1.957 0 0 0-.209-1.045.769.769 0 0 0-.7-.348 1.029 1.029 0 0 0-.905.627v6.059h-2.159V228.4h2.089v-.07z" class="cls-3" data-name="Path 81" transform="translate(-175.919 -224.705)"/><path id="Path_82" d="M283.956 236.823a3.633 3.633 0 0 1-2.646-.975 4.046 4.046 0 0 1-.975-2.855v-.7a5 5 0 0 1 .836-3.064 3.448 3.448 0 0 1 4.875-.07 5.107 5.107 0 0 1 .836 2.995v1.046h-4.318a2.08 2.08 0 0 0 .418 1.393 1.371 1.371 0 0 0 1.114.418 2.529 2.529 0 0 0 1.811-.766l.836 1.323a2.686 2.686 0 0 1-1.184.905 4.424 4.424 0 0 1-1.603.35zm-1.393-5.154h2.159v-.209a1.646 1.646 0 0 0-.279-1.114.842.842 0 0 0-.836-.418.993.993 0 0 0-.836.418c-.208.279-.138.767-.208 1.324z" class="cls-3" data-name="Path 82" transform="translate(-176.495 -224.705)"/><path id="Path_83" d="M292.638 230.413l-.7-.07a1.159 1.159 0 0 0-1.184.766v5.5H288.6v-8.357h2.089l.07.905a1.594 1.594 0 0 1 1.393-1.045 1.729 1.729 0 0 1 .627.07z" class="cls-3" data-name="Path 83" transform="translate(-176.89 -224.702)"/><path id="Path_84" d="M294.011 226.007a1.189 1.189 0 1 1 .348.836 1.153 1.153 0 0 1-.348-.836zm2.3 10.516h-2.161v-8.357h2.159z" class="cls-3" data-name="Path 84" transform="translate(-177.149 -224.545)"/><path id="Path_85" d="M301.234 235.013c.627 0 .975-.418.975-1.254h2.02a3.049 3.049 0 0 1-.836 2.229 2.886 2.886 0 0 1-2.159.836 3.143 3.143 0 0 1-2.438-.975 4.57 4.57 0 0 1-.836-2.925v-.7a4.65 4.65 0 0 1 .836-2.995 2.967 2.967 0 0 1 2.438-1.045 2.782 2.782 0 0 1 2.159.836 3.664 3.664 0 0 1 .836 2.438h-2.02a1.957 1.957 0 0 0-.209-1.045c-.139-.279-.418-.348-.766-.348a.993.993 0 0 0-.836.418 2.824 2.824 0 0 0-.279 1.6v.836a6.455 6.455 0 0 0 .07 1.393 1.825 1.825 0 0 0 .348.627c.139.004.418.074.697.074z" class="cls-3" data-name="Path 85" transform="translate(-177.337 -224.705)"/><path id="Path_86" d="M309.815 236.688a3.238 3.238 0 0 1-.209-.627 1.864 1.864 0 0 1-1.6.836 2.31 2.31 0 0 1-1.741-.7 2.362 2.362 0 0 1-.7-1.811 2.48 2.48 0 0 1 .836-2.02 4.059 4.059 0 0 1 2.438-.766h.7v-.7a1.12 1.12 0 0 0-.209-.766.791.791 0 0 0-.557-.209c-.557 0-.836.348-.836.975h-2.229a2.385 2.385 0 0 1 .836-1.88 3.322 3.322 0 0 1 2.229-.766 3.1 3.1 0 0 1 2.159.7 2.787 2.787 0 0 1 .766 2.02v3.9a5.2 5.2 0 0 0 .279 1.671v.139zm-1.323-1.6a2.034 2.034 0 0 0 .627-.139.839.839 0 0 0 .348-.348v-1.741h-.557a1.324 1.324 0 0 0-.905.348 1.378 1.378 0 0 0-.348.975c.143.624.343.903.835.903z" class="cls-3" data-name="Path 86" transform="translate(-177.7 -224.709)"/><path id="Path_87" d="M315.635 228.327l.07.836a2.346 2.346 0 0 1 1.95-.975c1.463 0 2.159.975 2.229 2.995v5.5h-2.159v-5.293a1.957 1.957 0 0 0-.209-1.045.9.9 0 0 0-.766-.348.959.959 0 0 0-.905.627v6.059h-2.159v-8.357z" class="cls-3" data-name="Path 87" transform="translate(-178.088 -224.705)"/><path id="Path_88" d="M333.33 232.78a4.293 4.293 0 0 1-1.114 2.925 3.984 3.984 0 0 1-2.786.975 3.6 3.6 0 0 1-2.925-1.254 5.4 5.4 0 0 1-1.045-3.552v-1.88a5.4 5.4 0 0 1 1.045-3.552 3.6 3.6 0 0 1 2.925-1.254 3.524 3.524 0 0 1 2.786 1.045 5.084 5.084 0 0 1 1.114 2.925h-2.3a3.324 3.324 0 0 0-.348-1.671 1.5 1.5 0 0 0-1.254-.418 1.263 1.263 0 0 0-1.254.627 3.915 3.915 0 0 0-.418 2.089v2.089a5.6 5.6 0 0 0 .348 2.3 1.406 1.406 0 0 0 1.254.627 1.6 1.6 0 0 0 1.254-.418 3.457 3.457 0 0 0 .418-1.6z" class="cls-3" data-name="Path 88" transform="translate(-178.651 -224.562)"/><path id="Path_89" d="M339.07 236.688a3.234 3.234 0 0 1-.209-.627 1.864 1.864 0 0 1-1.6.836 2.31 2.31 0 0 1-1.741-.7 2.362 2.362 0 0 1-.7-1.811 2.48 2.48 0 0 1 .836-2.02 4.059 4.059 0 0 1 2.438-.766h.7v-.7a1.12 1.12 0 0 0-.209-.766.791.791 0 0 0-.557-.209c-.557 0-.836.348-.836.975h-2.229a2.385 2.385 0 0 1 .836-1.88 3.323 3.323 0 0 1 2.229-.766 3.1 3.1 0 0 1 2.159.7 2.787 2.787 0 0 1 .766 2.02v3.9a5.2 5.2 0 0 0 .279 1.671v.139zm-1.323-1.6a2.033 2.033 0 0 0 .627-.139.839.839 0 0 0 .348-.348v-1.741h-.557a1.324 1.324 0 0 0-.905.348 1.378 1.378 0 0 0-.348.975c.138.624.347.903.834.903z" class="cls-3" data-name="Path 89" transform="translate(-179.098 -224.709)"/><path id="Path_90" d="M344.89 228.327l.07.836a2.346 2.346 0 0 1 1.95-.975c1.462 0 2.159.975 2.229 2.995v5.5h-2.159v-5.293a1.957 1.957 0 0 0-.209-1.045A.9.9 0 0 0 346 230a.959.959 0 0 0-.905.627v6.059h-2.155v-8.357z" class="cls-3" data-name="Path 90" transform="translate(-179.485 -224.705)"/><path id="Path_91" d="M351.058 226.007a1.189 1.189 0 1 1 .348.836 1.154 1.154 0 0 1-.348-.836zm2.3 10.516H351.2v-8.357h2.159z" class="cls-3" data-name="Path 91" transform="translate(-179.873 -224.545)"/><path id="Path_92" d="M357.25 228.327l.07.836a2.346 2.346 0 0 1 1.95-.975c1.463 0 2.159.975 2.229 2.995v5.5h-2.159v-5.293a1.957 1.957 0 0 0-.209-1.045.9.9 0 0 0-.766-.348.959.959 0 0 0-.905.627v6.059h-2.16v-8.357z" class="cls-3" data-name="Path 92" transform="translate(-180.076 -224.705)"/><path id="Path_93" d="M366.747 236.823a3.633 3.633 0 0 1-2.646-.975 4.046 4.046 0 0 1-.975-2.855v-.7a5 5 0 0 1 .836-3.064 2.833 2.833 0 0 1 2.507-1.045 2.99 2.99 0 0 1 2.368.975 5.107 5.107 0 0 1 .836 2.995v1.046h-4.318a2.08 2.08 0 0 0 .418 1.393 1.371 1.371 0 0 0 1.114.418 2.529 2.529 0 0 0 1.811-.766l.836 1.323a2.686 2.686 0 0 1-1.184.905 3.631 3.631 0 0 1-1.603.35zm-1.323-5.154h2.159v-.209a1.646 1.646 0 0 0-.279-1.114.842.842 0 0 0-.836-.418.993.993 0 0 0-.836.418 3.274 3.274 0 0 0-.208 1.324z" class="cls-3" data-name="Path 93" transform="translate(-180.45 -224.705)"/><path id="Path_94" d="M374.994 234.386a.526.526 0 0 0-.279-.488 7.784 7.784 0 0 0-1.184-.627 5.511 5.511 0 0 1-1.88-1.114 2.069 2.069 0 0 1-.488-1.463 2.529 2.529 0 0 1 .766-1.811 3.036 3.036 0 0 1 2.089-.7 3.289 3.289 0 0 1 2.229.7 2.385 2.385 0 0 1 .836 1.88h-2.159q0-1.045-.836-1.045a.791.791 0 0 0-.557.209.851.851 0 0 0-.209.627.526.526 0 0 0 .279.488 7.785 7.785 0 0 0 1.184.627 4.59 4.59 0 0 1 1.88 1.114 2.35 2.35 0 0 1 .557 1.6 2.246 2.246 0 0 1-.836 1.811 3.694 3.694 0 0 1-2.229.7 3.631 3.631 0 0 1-1.6-.348 2.653 2.653 0 0 1-1.532-2.368h2.089a1.017 1.017 0 0 0 .279.836c.139.209.418.279.836.279a.811.811 0 0 0 .765-.907z" class="cls-3" data-name="Path 94" transform="translate(-180.827 -224.705)"/><path id="Path_95" d="M386.682 236.688a3.238 3.238 0 0 1-.209-.627 1.864 1.864 0 0 1-1.6.836 2.31 2.31 0 0 1-1.741-.7 2.362 2.362 0 0 1-.7-1.811 2.48 2.48 0 0 1 .836-2.02 4.059 4.059 0 0 1 2.438-.766h.7v-.7a1.12 1.12 0 0 0-.209-.766.791.791 0 0 0-.557-.209c-.557 0-.836.348-.836.975h-2.159a2.385 2.385 0 0 1 .836-1.88 3.322 3.322 0 0 1 2.229-.766 3.1 3.1 0 0 1 2.159.7 2.786 2.786 0 0 1 .766 2.02v3.9a5.194 5.194 0 0 0 .279 1.671v.139zm-1.323-1.6a2.034 2.034 0 0 0 .627-.139.839.839 0 0 0 .348-.348v-1.741h-.557a1.324 1.324 0 0 0-.905.348 1.378 1.378 0 0 0-.348.975c.138.624.347.903.835.903z" class="cls-3" data-name="Path 95" transform="translate(-181.372 -224.709)"/><path id="Path_96" d="M392.5 228.327l.07.836a2.346 2.346 0 0 1 1.95-.975c1.463 0 2.159.975 2.229 2.995v5.5h-2.159v-5.293a1.957 1.957 0 0 0-.209-1.045.9.9 0 0 0-.766-.348.959.959 0 0 0-.905.627v6.059h-2.159v-8.357z" class="cls-3" data-name="Path 96" transform="translate(-181.76 -224.705)"/><path id="Path_97" d="M398.378 232.056a5.253 5.253 0 0 1 .7-3.064 2.278 2.278 0 0 1 2.02-1.045 1.951 1.951 0 0 1 1.6.836V224.6h2.229v11.839h-1.95l-.07-.836a1.922 1.922 0 0 1-1.741.975 2.385 2.385 0 0 1-2.02-.975 5.053 5.053 0 0 1-.7-2.925v-.627zm2.159.557a3.581 3.581 0 0 0 .279 1.741.945.945 0 0 0 .905.488 1.111 1.111 0 0 0 .975-.557v-3.83a1.05 1.05 0 0 0-.975-.627.945.945 0 0 0-.905.488 3.582 3.582 0 0 0-.279 1.741z" class="cls-3" data-name="Path 97" transform="translate(-182.133 -224.534)"/><path id="Path_98" d="M416.138 234.25h-3.064l-.627 2.3h-2.368l3.482-11.213h2.089l3.552 11.213h-2.438zm-2.577-1.95h2.089l-1.045-3.97z" class="cls-3" data-name="Path 98" transform="translate(-182.692 -224.569)"/><path id="Path_99" d="M421.071 236.509v-6.686h-1.045v-1.6h1.045v-.766a3.48 3.48 0 0 1 .7-2.159 2.675 2.675 0 0 1 2.02-.766 6.491 6.491 0 0 1 .975.139v1.741a1.358 1.358 0 0 0-.557-.07c-.627 0-.975.418-.975 1.184v.7h1.323v1.6H423.3v6.686z" class="cls-3" data-name="Path 99" transform="translate(-183.167 -224.531)"/><path id="Path_100" d="M430.209 230.413l-.7-.07a1.159 1.159 0 0 0-1.184.766v5.5h-2.155v-8.357h2.089l.07.905a1.594 1.594 0 0 1 1.393-1.045 1.729 1.729 0 0 1 .627.07z" class="cls-3" data-name="Path 100" transform="translate(-183.461 -224.702)"/><path id="Path_101" d="M431.582 226.007a1.189 1.189 0 1 1 .348.836 1.153 1.153 0 0 1-.348-.836zm2.3 10.516h-2.159v-8.357h2.159z" class="cls-3" data-name="Path 101" transform="translate(-183.719 -224.545)"/><path id="Path_102" d="M438.731 235.013c.627 0 .975-.418.975-1.254h2.02a3.049 3.049 0 0 1-.836 2.229 2.885 2.885 0 0 1-2.159.836 3.143 3.143 0 0 1-2.438-.975 4.57 4.57 0 0 1-.836-2.925v-.7a4.65 4.65 0 0 1 .836-2.995 2.967 2.967 0 0 1 2.438-1.045 2.781 2.781 0 0 1 2.159.836 3.664 3.664 0 0 1 .836 2.438h-2.02a1.957 1.957 0 0 0-.209-1.045c-.139-.279-.418-.348-.766-.348a.993.993 0 0 0-.836.418 2.824 2.824 0 0 0-.279 1.6v.836a6.458 6.458 0 0 0 .07 1.393 1.825 1.825 0 0 0 .348.627c.21.004.419.074.697.074z" class="cls-3" data-name="Path 102" transform="translate(-183.904 -224.705)"/><path id="Path_103" d="M447.313 236.688a3.238 3.238 0 0 1-.209-.627 1.864 1.864 0 0 1-1.6.836 2.31 2.31 0 0 1-1.741-.7 2.362 2.362 0 0 1-.7-1.811 2.48 2.48 0 0 1 .836-2.02 4.059 4.059 0 0 1 2.438-.766h.7v-.7a1.12 1.12 0 0 0-.209-.766.791.791 0 0 0-.557-.209c-.557 0-.836.348-.836.975h-2.159a2.385 2.385 0 0 1 .836-1.88 3.322 3.322 0 0 1 2.229-.766 3.1 3.1 0 0 1 2.159.7 2.786 2.786 0 0 1 .766 2.02v3.9a5.2 5.2 0 0 0 .279 1.671v.139zm-1.254-1.6a2.034 2.034 0 0 0 .627-.139.839.839 0 0 0 .348-.348v-1.741h-.557a1.324 1.324 0 0 0-.905.348 1.378 1.378 0 0 0-.348.975c.069.624.347.903.835.903z" class="cls-3" data-name="Path 103" transform="translate(-184.268 -224.709)"/><path id="Path_104" d="M453.206 228.327l.07.836a2.346 2.346 0 0 1 1.95-.975c1.462 0 2.159.975 2.229 2.995v5.5h-2.159v-5.293a1.957 1.957 0 0 0-.209-1.045.9.9 0 0 0-.766-.348.959.959 0 0 0-.905.627v6.059h-2.159v-8.357z" class="cls-3" data-name="Path 104" transform="translate(-184.659 -224.705)"/><path id="Path_105" d="M470.528 232.369l1.045-7.034h2.227l-2.02 11.213h-2.3l-1.323-6.616-1.323 6.616h-2.3l-2.02-11.213h2.229l1.045 7.034 1.323-7.034H469z" class="cls-3" data-name="Path 105" transform="translate(-185.197 -224.569)"/><path id="Path_106" d="M475.61 226.007a1.189 1.189 0 1 1 .348.836 1.153 1.153 0 0 1-.348-.836zm2.3 10.516h-2.16v-8.357h2.159z" class="cls-3" data-name="Path 106" transform="translate(-185.822 -224.545)"/><path id="Path_107" d="M482.084 236.516h-2.159v-11.839h2.159z" class="cls-3" data-name="Path 107" transform="translate(-186.028 -224.538)"/><path id="Path_108" d="M483.655 232.056a5.252 5.252 0 0 1 .7-3.064 2.278 2.278 0 0 1 2.02-1.045 1.952 1.952 0 0 1 1.6.836V224.6h2.225v11.839h-1.95l-.07-.836a1.922 1.922 0 0 1-1.741.975 2.385 2.385 0 0 1-2.02-.975 5.054 5.054 0 0 1-.7-2.925v-.627zm2.159.557a3.581 3.581 0 0 0 .279 1.741.945.945 0 0 0 .905.488 1.112 1.112 0 0 0 .975-.557v-3.83a1.05 1.05 0 0 0-.975-.627.945.945 0 0 0-.905.488 3.582 3.582 0 0 0-.279 1.741z" class="cls-3" data-name="Path 108" transform="translate(-186.206 -224.534)"/><path id="Path_109" d="M494.444 236.516h-2.159v-11.839h2.159z" class="cls-3" data-name="Path 109" transform="translate(-186.619 -224.538)"/><path id="Path_110" d="M496.381 226.007a1.189 1.189 0 1 1 .348.836 1.153 1.153 0 0 1-.348-.836zm2.3 10.516h-2.161v-8.357h2.159z" class="cls-3" data-name="Path 110" transform="translate(-186.814 -224.545)"/><path id="Path_111" d="M501.009 236.509v-6.686h-1.045v-1.6h1.045v-.766a3.48 3.48 0 0 1 .7-2.159 2.675 2.675 0 0 1 2.02-.766 6.491 6.491 0 0 1 .975.139v1.741a1.358 1.358 0 0 0-.557-.07c-.627 0-.975.418-.975 1.184v.7h1.323v1.6h-1.323v6.686z" class="cls-3" data-name="Path 111" transform="translate(-186.985 -224.531)"/><path id="Path_112" d="M509.364 236.823a3.633 3.633 0 0 1-2.646-.975 4.046 4.046 0 0 1-.975-2.855v-.7a5 5 0 0 1 .836-3.064 2.833 2.833 0 0 1 2.507-1.045 2.99 2.99 0 0 1 2.368.975 5.108 5.108 0 0 1 .836 2.995v1.046h-4.318a2.08 2.08 0 0 0 .418 1.393 1.371 1.371 0 0 0 1.114.418 2.529 2.529 0 0 0 1.811-.766l.836 1.323a2.687 2.687 0 0 1-1.184.905 4.13 4.13 0 0 1-1.603.35zm-1.393-5.154h2.159v-.209a1.647 1.647 0 0 0-.279-1.114.842.842 0 0 0-.836-.418.993.993 0 0 0-.836.418 5.237 5.237 0 0 0-.208 1.324z" class="cls-3" data-name="Path 112" transform="translate(-187.261 -224.705)"/></g></g><path id="Path_113" d="M159.582 191.635c-12.048-3.413-11.491-17.2-17.55-20.615a3.181 3.181 0 0 0-1.6-1.95c-1.532-.7-2.229-.348-2.925.975a.444.444 0 0 0 0 .418c-.279.07-.627.139-.975.209-.975-.905-2.646-2.089-4.388-1.88-2.577.279-3.273 1.184-3.2 3.343-1.532-.07-2.995-.488-5.78-.766-5.78-.627-5.572 1.393-9.959 1.045-6.407-.418-6.686-5.363-13.581-3.273s-5.989 7.661-7.661 10.1-6.059 3.2-7.8 4.736c-1.811 1.532-2.646 3.83-2.646 7.243 0 2.3.905 2.3 1.88 2.507-2.3 2.02-8.566 7.313-9.332 7.87a8.435 8.435 0 0 0-1.811 2.159c-1.045 3.273 1.95 3.9 1.95 3.9s1.6 3.134 2.995 5.293a7.092 7.092 0 0 0 3.761 2.786s3.134 4.527 5.084 4.875c2.995.557 3.482-3.761 10.447-5.293 1.463-.279 3.761 3.97 3.761 3.97s3.621 1.811 6.964 3.343c3.273 1.532 3.064 5.572 5.223 6.895s5.084.07 6.964-1.114c-.07 1.811-1.393 3.83-3.97 6.407 8.636 2.646 13.372-7.243 15.043-11.561 1.323 4.6.488 12.606-1.532 14.625a5.194 5.194 0 0 1 .975 2.159 9.206 9.206 0 0 0 .139 1.88c.488 3.482.209 2.855-.905 6.129s-4.457 2.786-7.173 3.134a19.635 19.635 0 0 1-2.995.139 6.8 6.8 0 0 0-2.229-.348c-2.159 0-6.755-1.95-6.755-1.95s-1.741 3.552-4.457 4.109c1.045 1.741 1.254 4.109 4.109 5.363s3.343 7.661 6.964 7.243c4.736-.487 8.984-6.616 10.029-9.263 3.273-2.786 6.686-7.1 6.477-10.377-.139-2.646.279-5.223-.348-7.939 1.184-1.811 2.3-3.621 2.438-3.691 3.343-2.786 5.572-6.964 7.452-9.541 2.229-3.134 3.552-5.223 9.541-9.123-2.925-2.02-5.85-4.318-9.68-3.691-5.711.905-9.123-.766-13.929 1.532-2.995 1.463-9.68-3.97-10.1-5.641-.209-.7-.139-2.577-1.532-3.2s-.836-3.273.07-3.9c.975-.348 5.363-.627 8.636-1.532a9.139 9.139 0 0 0 5.641-4.248c.627-1.254 1.95-3.622 4.666-3.9s2.925-.557 3.2-1.811-2.159-4.945-1.114-5.711c12.257 2.368 12.814 12.814 18.038 13.859 1.042-.078 7.098-4.883 3.48-5.928z" class="cls-3" data-name="Path 113" transform="translate(-72.027 -168.628)"/></g></g></g></svg>